HIERARCHY
ROOT joint_Root
{
	OFFSET 0.0 0.0 0.0
	CHANNELS 6 Xposition Yposition Zposition Zrotation Xrotation Yrotation 
	JOINT Hips
	{
		OFFSET -17.1583 93.1646 452.98
		CHANNELS 6 Xposition Yposition Zposition Zrotation Xrotation Yrotation 
		JOINT Spine
		{
			OFFSET 15.7357 0.0 0.0
			CHANNELS 6 Xposition Yposition Zposition Zrotation Xrotation Yrotation 
			JOINT Chest
			{
				OFFSET 8.98455 -0.406207 0.0
				CHANNELS 6 Xposition Yposition Zposition Zrotation Xrotation Yrotation 
				JOINT Neck
				{
					OFFSET 16.3773 0.0 0.0
					CHANNELS 6 Xposition Yposition Zposition Zrotation Xrotation Yrotation 
					JOINT Head
					{
						OFFSET 6.45672 0.0 0.0
						CHANNELS 6 Xposition Yposition Zposition Zrotation Xrotation Yrotation 
						End Site
						{
							OFFSET 0.0 0.0 0.0
						}
					}
				}
				JOINT Shoulder_L
				{
					OFFSET 12.9942 -0.242716 4.98039
					CHANNELS 6 Xposition Yposition Zposition Zrotation Xrotation Yrotation 
					JOINT UpperArm_L
					{
						OFFSET 5.34809 0.0 0.0
						CHANNELS 6 Xposition Yposition Zposition Zrotation Xrotation Yrotation 
						JOINT LowerArm_L
						{
							OFFSET 24.3286 1.87007e-05 0.0
							CHANNELS 6 Xposition Yposition Zposition Zrotation Xrotation Yrotation 
							JOINT Hand_L
							{
								OFFSET 22.2916 0.0 0.0
								CHANNELS 6 Xposition Yposition Zposition Zrotation Xrotation Yrotation 
								End Site
								{
									OFFSET 0.0 0.0 0.0
								}
							}
						}
					}
				}
				JOINT Shoulder_R
				{
					OFFSET 12.9945 -0.242716 -4.98039
					CHANNELS 6 Xposition Yposition Zposition Zrotation Xrotation Yrotation 
					JOINT UpperArm_R
					{
						OFFSET -5.34813 0.0 0.0
						CHANNELS 6 Xposition Yposition Zposition Zrotation Xrotation Yrotation 
						JOINT LowerArm_R
						{
							OFFSET -24.3289 0.000322201 0.0
							CHANNELS 6 Xposition Yposition Zposition Zrotation Xrotation Yrotation 
							JOINT Hand_R
							{
								OFFSET -22.2915 -0.000108084 0.0
								CHANNELS 6 Xposition Yposition Zposition Zrotation Xrotation Yrotation 
								End Site
								{
									OFFSET 0.0 0.0 0.0
								}
							}
						}
					}
				}
			}
		}
		JOINT UpperLeg_L
		{
			OFFSET -2.19248 -6.46944 0.0
			CHANNELS 6 Xposition Yposition Zposition Zrotation Xrotation Yrotation 
			JOINT LowerLeg_L
			{
				OFFSET 39.0811 0.0 -1.23785e-05
				CHANNELS 6 Xposition Yposition Zposition Zrotation Xrotation Yrotation 
				JOINT Foot_L
				{
					OFFSET 40.9854 0.0 -1.26872e-05
					CHANNELS 6 Xposition Yposition Zposition Zrotation Xrotation Yrotation 
					JOINT Toes_L
					{
						OFFSET 11.7543 0.0 0.0
						CHANNELS 6 Xposition Yposition Zposition Zrotation Xrotation Yrotation 
						End Site
						{
							OFFSET 0.0 0.0 0.0
						}
					}
				}
			}
		}
		JOINT UpperLeg_R
		{
			OFFSET -2.19251 6.46944 0.0
			CHANNELS 6 Xposition Yposition Zposition Zrotation Xrotation Yrotation 
			JOINT LowerLeg_R
			{
				OFFSET -39.0811 -0.00228153 -0.0401928
				CHANNELS 6 Xposition Yposition Zposition Zrotation Xrotation Yrotation 
				JOINT Foot_R
				{
					OFFSET -40.9854 0.0 0.0
					CHANNELS 6 Xposition Yposition Zposition Zrotation Xrotation Yrotation 
					JOINT Toes_R
					{
						OFFSET -11.7543 0.0 0.0
						CHANNELS 6 Xposition Yposition Zposition Zrotation Xrotation Yrotation 
						End Site
						{
							OFFSET 0.0 0.0 0.0
						}
					}
				}
			}
		}
	}
}
MOTION
Frames:	5
Frame Time:	0.0333333
0.000000 0.000000 0.000000 0.000000 0.000000 -0.000000 -1.037990 93.185800 -1.538280 88.419400 1.813600 1.607550 15.735700 0.000005 -0.000001 79.914100 87.664300 -78.624700 8.984550 -0.406207 -0.000000 -3.155090 -0.940538 2.553420 16.377300 -0.000001 -0.000001 -0.324209 3.092420 -2.552910 6.456720 -0.000001 -0.000000 2.320540 3.346850 -3.854600 12.994200 -0.242716 4.980390 -93.242400 9.649350 -71.326100 5.348090 -0.000007 -0.000001 -64.330200 21.126100 -3.379320 24.328600 0.000019 0.000005 8.416320 24.976600 -19.311100 22.291600 -0.000001 0.000005 -14.644200 5.236410 1.802840 12.994500 -0.242716 -4.980390 88.970500 3.335710 -72.838100 -5.348130 -0.000001 -0.000004 -69.259900 17.362100 -4.728200 -24.328900 0.000322 -0.000009 -0.546688 -2.767020 -11.157300 -22.291500 -0.000108 -0.000004 -12.888800 5.162500 3.643740 -2.192480 -6.469440 -0.000000 -173.503000 -6.209320 -1.990490 39.081100 -0.000007 -0.000012 0.015677 -0.054449 16.062600 40.985400 -0.000006 -0.000013 -0.975427 14.557000 -68.037100 11.754300 -0.000000 0.000003 -0.000775 0.179781 -9.284240 -2.192510 6.469440 -0.000001 177.834000 8.776840 179.851000 -39.081100 -0.002282 -0.040193 0.049617 -0.185222 14.030400 -40.985400 0.000008 0.000006 -4.059890 3.433450 -68.698400 -11.754300 -0.000006 -0.000006 -0.008412 0.259032 -6.052660
0.000000 0.000000 0.000000 0.000000 0.000000 -0.000000 -1.063200 93.204100 -1.254090 88.342600 1.988510 0.859738 15.735700 0.000005 -0.000001 76.851100 88.003500 -75.439200 8.984550 -0.406207 -0.000000 -3.863500 -1.050980 2.789590 16.377300 -0.000001 -0.000001 -1.956340 3.285480 -2.565570 6.456720 -0.000001 -0.000000 2.512120 3.703340 -4.901410 12.994200 -0.242716 4.980390 -93.284900 9.726300 -71.235500 5.348090 -0.000007 -0.000001 -60.907200 13.778200 -4.087810 24.328600 0.000019 0.000005 7.478140 26.333900 -16.484300 22.291600 -0.000001 0.000005 -17.101500 5.193000 2.895990 12.994500 -0.242716 -4.980390 88.994900 3.168800 -72.392100 -5.348130 -0.000001 -0.000004 -66.326500 8.507240 -4.749760 -24.328900 0.000322 -0.000009 -0.449467 -2.837450 -8.996050 -22.291500 -0.000108 -0.000004 -14.371600 5.147730 3.998800 -2.192480 -6.469440 -0.000000 -173.452000 -6.195160 -2.428170 39.081100 -0.000007 -0.000012 0.014097 -0.049962 15.757300 40.985400 -0.000006 -0.000013 -1.005390 14.676100 -68.133200 11.754300 -0.000000 0.000003 -0.000931 0.182052 -9.191960 -2.192510 6.469440 -0.000001 177.984000 9.140730 179.573000 -39.081100 -0.002282 -0.040193 0.043900 -0.169415 13.466000 -40.985400 0.000008 0.000006 -4.238640 3.563870 -68.485100 -11.754300 -0.000006 -0.000006 -0.008555 0.260174 -6.006000
0.000000 0.000000 0.000000 0.000000 0.000000 -0.000000 -1.046670 93.250000 -0.889784 88.316300 2.273960 0.063172 15.735700 0.000005 -0.000001 70.345600 88.329900 -68.765300 8.984550 -0.406207 -0.000000 -4.601280 -1.292920 3.110930 16.377300 -0.000001 -0.000001 -4.180670 3.661100 -2.646210 6.456720 -0.000001 -0.000000 2.663550 4.289250 -6.553640 12.994200 -0.242716 4.980390 -93.246400 9.595800 -71.208500 5.348090 -0.000007 -0.000001 -56.739300 5.460970 -4.709170 24.328600 0.000019 0.000005 6.120970 26.484000 -13.521300 22.291600 -0.000001 0.000005 -17.184700 5.170020 3.460360 12.994500 -0.242716 -4.980390 89.150900 2.648700 -72.217100 -5.348130 -0.000001 -0.000004 -62.160100 -1.431650 -4.989600 -24.328900 0.000322 -0.000009 -0.591942 -5.714880 -5.927210 -22.291500 -0.000108 -0.000004 -14.581900 5.128570 4.449340 -2.192480 -6.469440 -0.000000 -173.461000 -6.463230 -2.688090 39.081100 -0.000007 -0.000012 0.006907 -0.025629 15.083000 40.985400 -0.000006 -0.000013 -1.002200 15.063400 -68.120100 11.754300 -0.000000 0.000003 -0.001005 0.183103 -9.149230 -2.192510 6.469440 -0.000001 177.998000 9.744190 179.524000 -39.081100 -0.002282 -0.040193 0.032551 -0.131830 12.495900 -40.985400 0.000008 0.000006 -4.752280 3.962780 -68.027800 -11.754300 -0.000006 -0.000006 -0.008509 0.259807 -6.021030
0.000000 0.000000 0.000000 0.000000 0.000000 -0.000000 -1.013830 93.287800 -0.415833 88.271600 2.485560 -0.971636 15.735700 0.000005 -0.000001 61.712900 88.738200 -60.030700 8.984550 -0.406207 -0.000000 -5.522090 -1.389280 3.301070 16.377300 -0.000001 -0.000001 -6.362070 4.038460 -2.915090 6.456720 -0.000001 -0.000000 2.024070 4.705440 -7.509370 12.994200 -0.242716 4.980390 -93.047700 8.871010 -70.951900 5.348090 -0.000007 -0.000001 -51.942900 -3.051000 -5.759420 24.328600 0.000019 0.000005 4.807490 25.800800 -10.935500 22.291600 -0.000001 0.000005 -16.379500 5.157970 3.750420 12.994500 -0.242716 -4.980390 89.422300 1.779010 -72.005800 -5.348130 -0.000001 -0.000004 -57.082200 -11.283300 -5.552600 -24.328900 0.000322 -0.000009 -0.254749 -8.047550 -1.809740 -22.291500 -0.000108 -0.000004 -12.622700 5.134400 4.314440 -2.192480 -6.469440 -0.000000 -173.483000 -6.743060 -3.066610 39.081100 -0.000007 -0.000012 -0.001910 0.007468 14.342000 40.985400 -0.000006 -0.000013 -1.001900 15.378100 -68.123100 11.754300 -0.000000 0.000003 -0.001379 0.188282 -8.938730 -2.192510 6.469440 -0.000001 178.086000 10.548300 179.393000 -39.081100 -0.002282 -0.040193 0.022491 -0.095817 11.304800 -40.985400 0.000008 0.000006 -5.098650 4.415710 -67.441100 -11.754300 -0.000006 -0.000006 -0.008997 0.263653 -5.863860
0.000000 0.000000 0.000000 0.000000 0.000000 -0.000000 -0.988183 93.339500 0.151488 88.244900 2.711740 -2.018100 15.735700 0.000005 -0.000001 45.478200 89.204800 -43.813900 8.984550 -0.406207 -0.000000 -6.611660 -1.321760 3.257400 16.377300 -0.000001 -0.000001 -8.144640 4.194900 -3.052940 6.456720 -0.000001 -0.000000 1.400910 4.935390 -7.834690 12.994200 -0.242716 4.980390 -92.790900 7.808980 -70.261900 5.348090 -0.000007 -0.000001 -46.767700 -12.594200 -7.876640 24.328600 0.000019 0.000005 3.273100 24.438700 -7.869520 22.291600 -0.000001 0.000005 -14.935300 5.123230 4.567450 12.994500 -0.242716 -4.980390 89.823800 0.525778 -71.463200 -5.348130 -0.000001 -0.000004 -51.549800 -21.611600 -5.807920 -24.328900 0.000322 -0.000009 -0.000848 -7.946410 -0.000048 -22.291500 -0.000108 -0.000004 -8.219730 5.115650 4.731280 -2.192480 -6.469440 -0.000000 -173.542000 -6.737210 -3.210800 39.081100 -0.000007 -0.000012 -0.003607 0.015318 13.249600 40.985400 -0.000006 -0.000013 -1.076430 15.411000 -68.082200 11.754300 -0.000000 0.000003 -0.001767 0.193394 -8.730880 -2.192510 6.469440 -0.000001 178.121000 11.052500 179.524000 -39.081100 -0.002282 -0.040193 0.010830 -0.043775 9.710370 -40.985400 0.000008 0.000006 -5.967340 4.746390 -66.743100 -11.754300 -0.000006 -0.000006 -0.010556 0.275417 -5.382760
